# xmcd
#
# Track frame offsets:
#	183
#	6225
#	20670
#	37033
#	49333
#	60958
#	69433
#	80908
#	92195
#	103708
#	114083
#	127558
#	138320
#	152458
#	164345
#	176908
#	187708
#	200683
#	212608
#	227270
#	239720
#	253670
#	265633
#	278233
#	287833
#
# Disc length: 3976 seconds
# Revision: 4
# Processed by: cddbd v1.5.2PL0 Copyright (c) Steve Scherf et al.
# Submitted via: dBpowerAMP V12.0
#
DISCID=590f8619
DTITLE=Various Artist - Country Highway
DYEAR=1992
DGENRE=Country
TTITLE0=Tammy Wynette - Welcome to My World
TTITLE1=Hoyt Axton - Evangelina
TTITLE2=Mel Tillis - Rose of El Paso
TTITLE3=Boxcar Willie - Hobo Heaven
TTITLE4=Patsy Cline - Walkin After Midnight
TTITLE5=Don Williams - I Gave My Love to a Railroad Man
TTITLE6=Kitty Wells - Heartbreak USA
TTITLE7=Hank Thompson - Smokey the Bear
TTITLE8=Wanda Jackson - In the Middle of a Heartache
TTITLE9=Faron Young - Hello Walls
TTITLE10=Margo Smith - Don't Break the Heart of That Loves You
TTITLE11=Roger Miller - King of the Road
TTITLE12=Billie Jo Spears - Mr Walker (It's All Over)
TTITLE13=Johnny Cash - I Walk the Line
TTITLE14=Jeannie C. Riley - Cotton Patch
TTITLE15=Hank Locklin - Born to Ramble
TTITLE16=Faron Young - I'm a Free Man Now
TTITLE17=Webb Pierce - High Geared Daddy
TTITLE18=George Jones - Cold Cold Heart
TTITLE19=Ronnie McDowell - Older Woman Make Good Lovers
TTITLE20=Mickey Gilley - Your Memory Ain't What It Used to Be
TTITLE21=Jerry Wallace - Release Me
TTITLE22=Glen Campbell - By the Time I Got to Phoenix
TTITLE23=Tammy Wynette - Womanhood
TTITLE24=Lynn Anderson - I've Never Loved Anyone More
EXTD=
EXTT0=
EXTT1=
EXTT2=
EXTT3=
EXTT4=
EXTT5=
EXTT6=
EXTT7=
EXTT8=
EXTT9=
EXTT10=
EXTT11=
EXTT12=
EXTT13=
EXTT14=
EXTT15=
EXTT16=
EXTT17=
EXTT18=
EXTT19=
EXTT20=
EXTT21=
EXTT22=
EXTT23=
EXTT24=
PLAYORDER=
